<?xml version="1.0" standalone="no"?>
<!DOCTYPE svg PUBLIC "-//W3C//DTD SVG 20010904//EN"
 "http://www.w3.org/TR/2001/REC-SVG-20010904/DTD/svg10.dtd">
<svg version="1.0" xmlns="http://www.w3.org/2000/svg"
 width="2816.000000pt" height="1536.000000pt" viewBox="0 0 2816.000000 1536.000000"
 preserveAspectRatio="xMidYMid meet">

<g transform="translate(0.000000,1536.000000) scale(0.100000,-0.100000)"
fill="#000000" stroke="none">
<path d="M10112 12585 c-77 -262 -97 -424 -89 -728 6 -234 23 -356 82 -583 48
-184 94 -306 179 -479 131 -263 276 -467 475 -665 267 -267 521 -451 1002
-727 416 -240 655 -387 756 -468 126 -99 266 -237 335 -329 54 -72 144 -233
135 -242 -2 -2 -22 22 -44 54 -95 134 -199 226 -413 367 -179 117 -237 148
-710 385 -421 210 -587 299 -810 431 -63 38 -101 57 -85 44 25 -21 27 -27 15
-35 -9 -5 -17 -5 -21 1 -3 5 -13 7 -22 3 -9 -3 -14 -10 -11 -15 3 -5 -2 -9
-10 -9 -10 0 -16 -9 -16 -22 0 -52 -5 -68 -19 -68 -11 0 -10 -4 5 -15 11 -9
13 -14 5 -13 -8 2 -14 -6 -16 -20 -1 -18 2 -21 18 -16 11 3 17 2 14 -2 -3 -5
1 -15 9 -22 8 -7 14 -8 14 -2 0 5 5 10 10 10 6 0 10 -9 10 -19 0 -26 148 -117
537 -331 236 -129 207 -136 -61 -14 -408 185 -831 463 -1080 710 -157 156
-386 447 -450 572 -17 32 -17 34 1 48 22 16 30 17 38 4 10 -16 25 -2 18 16 -5
13 -1 15 15 9 13 -3 22 -2 22 4 0 5 9 12 20 16 19 6 19 7 3 33 -13 22 -8 19
27 -13 l44 -40 -50 65 c-142 185 -255 362 -341 535 -57 113 -133 300 -158 390
-10 33 -21 64 -26 70 -12 12 -11 -171 2 -320 47 -549 234 -1033 562 -1455 71
-90 304 -327 412 -418 144 -121 371 -265 570 -363 259 -126 350 -163 730 -292
603 -205 893 -331 1090 -472 50 -35 140 -115 200 -176 l110 -112 -80 60 c-44
33 -116 81 -160 106 -185 107 -611 264 -927 341 -79 19 -226 55 -328 80 -341
82 -685 186 -867 262 -167 69 -413 200 -555 296 -49 33 -60 37 -83 28 -37 -14
-45 -13 -38 8 5 15 4 14 -9 -2 -8 -10 -19 -16 -25 -13 -5 3 -17 -3 -26 -14
-21 -23 -21 -25 -3 -32 8 -3 13 1 12 11 -1 12 7 17 23 17 21 0 25 -5 27 -35 1
-19 0 -29 -3 -22 -6 15 -33 16 -33 2 0 -17 -30 4 -100 72 -122 119 -280 300
-280 321 0 5 10 6 23 3 12 -3 16 -3 10 0 -7 3 -13 14 -13 24 0 10 -6 21 -12
24 -7 3 -4 4 7 3 11 -1 32 -15 48 -31 15 -15 27 -24 27 -19 0 5 -12 20 -26 34
-14 13 -76 81 -137 152 -60 70 -112 127 -114 127 -3 0 7 -14 22 -32 34 -40 15
-51 -19 -11 -17 19 -26 23 -26 13 0 -13 -1 -13 -10 0 -6 9 -5 17 3 22 8 5 7 8
-4 8 -10 0 -27 23 -43 60 -15 33 -29 60 -31 60 -5 0 39 -121 86 -240 43 -107
157 -322 235 -442 168 -259 389 -496 619 -665 230 -168 475 -284 789 -373 294
-83 430 -107 857 -155 746 -83 906 -129 1157 -332 30 -24 52 -43 49 -43 -2 0
-31 16 -63 35 -169 102 -533 146 -904 110 -277 -27 -608 -31 -765 -10 -135 18
-318 59 -417 94 -32 11 -58 18 -58 17 0 -9 144 -119 203 -155 225 -137 436
-213 686 -246 145 -20 272 -19 592 6 298 22 414 20 536 -11 190 -49 306 -164
320 -318 7 -73 -13 -145 -62 -226 -19 -32 -33 -61 -31 -63 7 -7 98 43 176 98
150 105 303 285 388 454 40 81 89 222 113 325 26 114 36 344 19 478 -12 102
-28 147 -23 69 2 -42 2 -42 -7 -10 -12 37 -30 53 -30 26 0 -10 -3 -14 -8 -8
-4 6 -13 10 -19 9 -7 -1 -20 -2 -29 -3 -14 -1 -16 -9 -10 -53 4 -29 5 -50 3
-48 -3 3 -21 46 -40 96 -45 117 -77 180 -144 284 -175 270 -391 451 -895 752
-405 242 -461 277 -576 362 -280 207 -567 501 -666 681 -15 28 -32 54 -37 59
-5 6 -9 16 -9 24 0 12 -86 132 -95 132 -5 0 61 -138 129 -270 118 -230 245
-391 560 -706 111 -111 217 -219 236 -240 l35 -38 -37 27 c-38 28 -54 34 -43
17 3 -5 2 -10 -4 -10 -5 0 -13 9 -16 20 -4 11 -10 18 -15 15 -5 -3 -12 -1 -15
5 -4 6 -15 8 -25 5 -12 -4 -22 1 -29 12 -9 16 -10 16 -11 1 0 -9 -5 -20 -10
-23 -6 -4 -10 -3 -9 2 3 19 -2 25 -14 15 -20 -17 -102 63 -102 99 -1 34 3 36
21 12 12 -16 12 -16 7 5 -3 13 -13 22 -25 22 -15 0 -18 5 -14 16 7 19 -12 47
-25 38 -5 -3 -9 2 -9 10 0 19 11 21 28 4 7 -7 12 -9 12 -6 0 15 -235 216 -395
337 -213 161 -346 274 -475 405 -75 76 -92 99 -80 106 20 12 29 4 23 -23 -4
-20 -3 -20 17 6 21 26 48 29 33 4 -4 -7 0 -6 10 2 9 7 14 18 10 25 -3 6 3 2
14 -9 11 -11 18 -26 15 -34 -4 -9 -1 -12 7 -7 6 4 9 16 6 27 -5 15 -1 19 15
19 12 0 18 -4 15 -10 -8 -13 5 -13 25 0 13 9 13 10 0 10 -8 1 1 9 20 20 19 11
30 19 24 20 -7 0 -14 6 -17 14 -4 9 0 12 11 9 9 -2 26 3 37 12 20 16 20 16 -2
6 -31 -16 -35 -14 -22 10 7 14 17 19 30 16 10 -3 19 -4 19 -2 0 11 -26 61 -35
67 -6 5 -6 8 1 8 6 0 17 -7 24 -15 7 -9 32 -30 54 -47 23 -17 -54 63 -171 178
-308 304 -492 533 -662 820 -213 362 -328 714 -359 1094 l-7 95 -33 -110z
m1068 -2179 c-14 -14 -24 0 -16 21 6 15 8 15 16 3 6 -9 5 -19 0 -24z m-39 1
c-1 -12 -15 -9 -19 4 -3 6 1 10 8 8 6 -3 11 -8 11 -12z m-1553 -850 c31 -47
27 -54 -8 -14 -30 35 -36 47 -22 47 4 0 17 -15 30 -33z m2307 24 c-3 -5 3 -12
12 -14 15 -4 15 -5 2 -6 -9 0 -22 6 -29 14 -10 12 -9 15 4 15 10 0 15 -4 11
-9z m-2205 -201 c0 -5 -5 -10 -11 -10 -5 0 -7 5 -4 10 3 6 8 10 11 10 2 0 4
-4 4 -10z m410 -455 c14 -19 14 -19 -2 -6 -10 7 -18 18 -18 24 0 6 1 8 3 6 1
-2 9 -13 17 -24z"/>
<path d="M13805 11905 c-652 -116 -1248 -395 -1817 -849 -32 -26 -58 -42 -58
-36 0 5 4 10 8 10 5 0 37 27 72 60 35 33 67 60 72 60 4 0 8 7 8 16 0 8 4 13 8
10 4 -2 14 0 22 5 13 8 13 10 0 19 -12 9 -12 10 5 9 32 -4 67 11 61 27 -3 7 0
13 6 11 6 -1 13 4 16 12 3 8 0 11 -7 7 -7 -5 -9 -1 -5 9 5 12 14 15 33 11 14
-3 21 -3 15 0 -17 7 -5 54 12 47 8 -3 14 0 14 6 0 6 -6 11 -14 11 -10 0 -13 8
-10 25 2 14 0 25 -6 25 -5 0 -10 5 -10 11 0 5 4 8 9 4 5 -3 11 3 13 12 5 20
-21 83 -34 83 -13 0 -9 -18 5 -23 6 -2 -5 -4 -25 -4 -21 1 -38 2 -38 4 0 1 25
19 55 39 30 20 55 39 55 41 0 5 -4 3 -121 -73 -253 -165 -616 -473 -761 -646
l-42 -50 35 -30 c91 -77 371 -299 383 -304 8 -3 21 5 30 17 76 109 336 361
541 524 236 188 596 397 895 520 114 47 146 63 103 52 -13 -3 -23 -1 -23 4 0
5 5 9 11 9 5 0 7 5 3 12 -4 6 -3 8 4 5 13 -9 44 2 37 13 -3 5 -1 11 5 15 6 4
8 11 5 16 -3 5 1 6 10 3 10 -4 15 -2 13 7 -2 9 5 13 20 11 22 -3 26 4 23 43
-2 15 0 17 7 6 8 -11 11 -10 16 7 5 14 13 18 26 15 11 -3 20 -1 20 5 0 5 14
15 30 21 17 5 30 15 30 20 0 6 9 11 21 11 13 0 18 -4 13 -12 -4 -7 -3 -8 5 -4
6 4 9 12 5 17 -9 15 15 38 34 32 14 -4 15 -3 2 5 -9 7 -18 8 -26 1 -7 -6 -15
-6 -18 -1 -7 12 49 28 160 47 49 8 102 18 118 21 22 5 27 3 21 -7 -5 -8 -5
-11 0 -7 4 4 15 2 24 -5 14 -10 14 -10 3 5 -12 15 -10 18 20 27 61 17 -9 11
-147 -14z m-265 -115 c0 -5 -5 -10 -11 -10 -5 0 -7 5 -4 10 3 6 8 10 11 10 2
0 4 -4 4 -10z m-103 -96 c-3 -3 -12 -4 -19 -1 -8 3 -5 6 6 6 11 1 17 -2 13 -5z"/>
<path d="M13476 11708 c3 -5 10 -6 15 -3 13 9 11 12 -6 12 -8 0 -12 -4 -9 -9z"/>
<path d="M13390 11600 c-9 -6 -10 -10 -3 -10 6 0 15 5 18 10 8 12 4 12 -15 0z"/>
<path d="M17581 11464 c0 -11 3 -14 6 -6 3 7 2 16 -1 19 -3 4 -6 -2 -5 -13z"/>
<path d="M17521 11244 c0 -11 3 -14 6 -6 3 7 2 16 -1 19 -3 4 -6 -2 -5 -13z"/>
<path d="M17505 11210 c-3 -5 -1 -10 4 -10 6 0 11 5 11 10 0 6 -2 10 -4 10 -3
0 -8 -4 -11 -10z"/>
<path d="M17456 11078 c-76 -176 -180 -373 -261 -493 -81 -121 -213 -280 -223
-270 -4 4 4 15 17 26 13 11 20 23 16 27 -4 4 -10 1 -12 -5 -3 -7 -11 -13 -19
-13 -8 0 -14 -7 -14 -15 0 -8 -4 -15 -10 -15 -5 0 -10 -7 -10 -15 0 -8 -6 -15
-14 -15 -8 0 -16 -7 -20 -15 -5 -13 -2 -14 17 -4 20 11 21 11 8 -4 -7 -10 -19
-17 -26 -17 -7 0 -18 -7 -25 -15 -9 -11 -9 -15 -1 -15 7 0 9 -5 6 -10 -4 -6
-11 -8 -16 -4 -5 3 -8 2 -7 -3 5 -14 -40 -56 -51 -49 -7 4 -8 1 -5 -8 4 -11 0
-16 -11 -16 -9 0 -14 -4 -11 -8 3 -5 -11 -24 -31 -43 -19 -19 -87 -103 -150
-186 -63 -84 -119 -155 -124 -159 -5 -3 20 39 56 93 80 121 205 338 244 424
36 80 93 239 89 251 -2 4 -34 -46 -72 -113 -126 -222 -217 -347 -365 -505 -61
-65 -108 -110 -296 -282 -33 -31 -89 -83 -124 -116 -35 -34 -60 -52 -56 -41
43 110 60 181 45 190 -5 3 -10 -2 -10 -11 0 -16 -1 -16 -20 1 -20 18 -20 17
-20 -9 0 -23 -3 -26 -20 -21 -11 3 -20 2 -20 -3 0 -6 5 -12 10 -14 6 -2 1 -9
-11 -17 -19 -11 -21 -11 -16 3 6 15 4 15 -18 0 -36 -24 -31 -8 13 35 20 20 46
48 56 61 11 14 -50 -45 -136 -130 -277 -277 -388 -466 -420 -715 l-10 -80 50
-130 c84 -221 127 -398 148 -613 l7 -74 32 60 c78 147 220 306 345 387 165
108 307 166 619 256 329 95 378 112 506 175 267 133 525 378 649 618 20 39 29
60 19 46 -30 -43 -250 -250 -266 -250 -3 0 20 25 51 56 32 31 49 54 40 50 -10
-3 -18 -1 -18 4 0 12 -27 2 -63 -23 -16 -10 -31 -16 -35 -12 -4 4 -2 10 5 12
13 5 143 102 143 107 0 2 -51 -30 -112 -71 -146 -96 -370 -206 -578 -283 -587
-217 -699 -269 -889 -408 -40 -30 -93 -74 -117 -98 -60 -60 -55 -41 11 38 148
180 377 341 836 586 244 130 414 233 524 315 103 78 325 300 400 402 81 108
169 256 158 264 -10 6 -24 36 -29 59 -4 19 -13 27 -21 18 -4 -4 -2 -11 6 -15
10 -7 9 -9 -3 -14 -19 -7 -28 6 -20 27 3 9 2 16 -4 16 -6 0 -13 -6 -15 -12 -4
-8 -6 -7 -6 3 -1 22 23 31 40 16 9 -9 9 -7 -1 6 -11 15 -11 22 -1 39 7 11 10
22 8 24 -3 3 -24 -23 -47 -58 -115 -169 -322 -390 -470 -503 -91 -70 -331
-235 -341 -235 -5 0 12 19 36 41 25 23 45 48 45 55 0 8 7 14 16 14 14 0 15 2
3 17 -10 11 -10 14 -1 9 7 -4 12 -1 12 8 0 9 6 13 14 10 10 -4 12 2 8 23 -6
31 -26 55 -37 45 -5 -4 -6 0 -2 9 4 13 -1 16 -23 15 -18 -1 -79 -39 -176 -108
-82 -59 -217 -156 -301 -215 -330 -235 -455 -358 -641 -629 -7 -11 13 31 44
92 124 247 287 422 719 775 190 155 480 436 602 584 116 140 207 288 300 490
52 114 124 330 95 287 -9 -13 -42 -6 -42 9 0 5 -8 9 -17 9 -15 0 -16 2 -3 10
12 8 12 10 1 10 -10 0 -11 3 -2 13 8 11 4 13 -22 10 -26 -3 -28 -1 -12 6 17 8
18 10 3 10 -10 1 -18 6 -18 11 0 6 -5 9 -12 8 -7 -2 -14 10 -17 25 -5 24 -13
13 -55 -85z m184 -68 c0 -5 -4 -10 -10 -10 -5 0 -10 5 -10 10 0 6 5 10 10 10
6 0 10 -4 10 -10z m-90 -1710 c0 -5 -5 -10 -11 -10 -5 0 -7 5 -4 10 3 6 8 10
11 10 2 0 4 -4 4 -10z"/>
<path d="M11095 10340 c3 -5 1 -10 -4 -10 -6 0 -11 -5 -11 -11 0 -8 5 -8 15 1
17 14 20 30 4 30 -5 0 -7 -4 -4 -10z"/>
<path d="M16899 10303 c-13 -16 -12 -17 4 -4 9 7 17 15 17 17 0 8 -8 3 -21
-13z"/>
<path d="M13819 10141 c15 -27 113 -113 120 -105 3 4 -1 9 -9 12 -8 3 -39 29
-68 59 -29 29 -48 45 -43 34z"/>
<path d="M13877 10119 c7 -7 15 -10 18 -7 3 3 -2 9 -12 12 -14 6 -15 5 -6 -5z"/>
<path d="M13950 10096 c25 -7 47 -11 49 -9 8 6 -5 11 -49 17 l-45 5 45 -13z"/>
<path d="M10350 10086 c0 -2 8 -10 18 -17 15 -13 16 -12 3 4 -13 16 -21 21
-21 13z"/>
<path d="M13925 10070 c3 -5 8 -10 11 -10 2 0 4 5 4 10 0 6 -5 10 -11 10 -5 0
-7 -4 -4 -10z"/>
<path d="M13950 10025 c0 -5 68 -35 79 -35 8 1 -61 39 -71 40 -5 0 -8 -2 -8
-5z"/>
<path d="M10510 9936 c0 -2 7 -7 16 -10 8 -3 12 -2 9 4 -6 10 -25 14 -25 6z"/>
<path d="M13560 9845 c32 -32 50 -43 63 -39 14 4 17 1 15 -12 -4 -22 53 -57
102 -62 106 -10 231 -12 270 -3 39 9 33 10 -47 7 -51 -2 -93 1 -93 5 0 5 5 9
11 9 5 0 7 5 4 10 -4 6 -15 8 -25 5 -10 -3 -21 -2 -23 2 -3 5 6 10 20 11 43 3
39 12 -5 12 -23 0 -42 5 -42 11 0 5 3 8 8 6 4 -2 30 -1 57 3 44 6 38 8 -45 9
-54 1 -125 10 -165 21 -38 10 -72 16 -75 14 -2 -3 6 -7 18 -11 22 -5 27 -14
16 -26 -7 -7 -42 23 -44 38 -1 11 -38 34 -55 35 -5 0 11 -20 35 -45z m290
-105 c0 -5 -4 -10 -10 -10 -5 0 -10 5 -10 10 0 6 5 10 10 10 6 0 10 -4 10 -10z"/>
<path d="M9377 9830 c3 -11 9 -22 13 -25 5 -3 6 4 3 15 -3 11 -9 22 -13 25 -5
3 -6 -4 -3 -15z"/>
<path d="M14028 9833 c7 -3 16 -2 19 1 4 3 -2 6 -13 5 -11 0 -14 -3 -6 -6z"/>
<path d="M13968 9823 c6 -2 18 -2 25 0 6 3 1 5 -13 5 -14 0 -19 -2 -12 -5z"/>
<path d="M17030 9799 c-19 -15 -30 -28 -25 -28 12 0 69 48 64 54 -2 2 -20 -10
-39 -26z"/>
<path d="M14103 9778 c1 -7 -3 -12 -10 -13 -20 0 -37 -22 -24 -29 6 -4 11 -2
11 4 0 7 6 10 13 7 7 -3 19 3 25 13 9 14 8 19 -3 24 -8 3 -14 0 -12 -6z"/>
<path d="M14140 9775 c0 -9 6 -12 15 -9 8 4 15 7 15 9 0 2 -7 5 -15 9 -9 3
-15 0 -15 -9z"/>
<path d="M13926 9762 c-3 -5 1 -9 9 -9 8 0 12 4 9 9 -3 4 -7 8 -9 8 -2 0 -6
-4 -9 -8z"/>
<path d="M13980 9760 c0 -5 7 -7 15 -4 8 4 15 8 15 10 0 2 -7 4 -15 4 -8 0
-15 -4 -15 -10z"/>
<path d="M14203 9516 c-1 -17 -5 -77 -8 -132 -5 -71 -4 -103 4 -108 12 -8 13
-1 11 64 -1 25 4 76 10 113 8 55 8 71 -3 81 -11 12 -14 9 -14 -18z"/>
<path d="M14185 9509 c-4 -6 -5 -12 -2 -15 2 -3 7 2 10 11 7 17 1 20 -8 4z"/>
<path d="M11990 9506 c0 -2 8 -10 18 -17 15 -13 16 -12 3 4 -13 16 -21 21 -21
13z"/>
<path d="M12021 9408 c6 -12 6 -18 -1 -18 -16 0 -12 -17 7 -24 10 -4 14 -4 10
0 -4 4 -2 13 4 21 8 9 8 13 1 13 -6 0 -9 6 -6 13 3 8 -2 14 -10 14 -11 0 -13
-5 -5 -19z"/>
<path d="M14141 9393 c-1 -6 -4 -20 -7 -30 -5 -17 -5 -17 6 0 6 10 9 23 6 30
-3 9 -5 9 -5 0z"/>
<path d="M12050 9350 c0 -5 5 -10 10 -10 6 0 10 5 10 10 0 6 -4 10 -10 10 -5
0 -10 -4 -10 -10z"/>
<path d="M9850 9295 c13 -14 26 -25 28 -25 3 0 -5 11 -18 25 -13 14 -26 25
-28 25 -3 0 5 -11 18 -25z"/>
<path d="M14224 9309 c-4 -7 -3 -9 3 -6 6 4 16 0 22 -7 10 -12 8 -13 -10 -9
-15 4 -20 2 -15 -5 3 -6 -2 -15 -11 -21 -15 -8 -16 -13 -5 -30 16 -27 15 -31
-4 -31 -9 0 -12 -5 -8 -12 5 -7 3 -8 -5 -4 -13 9 -71 -11 -84 -28 -4 -6 -6 12
-3 39 l5 50 -14 -44 c-8 -24 -28 -132 -45 -240 -16 -108 -37 -228 -47 -267
l-16 -71 31 -75 c40 -96 77 -225 98 -341 25 -135 23 -390 -5 -526 -80 -400
-291 -725 -626 -963 -95 -67 -211 -132 -480 -268 -148 -75 -311 -162 -362
-193 -330 -205 -583 -500 -676 -792 -30 -93 -51 -194 -43 -202 3 -4 6 1 6 9 0
30 139 227 217 309 152 159 364 309 535 380 79 32 344 118 445 144 34 8 151
33 260 55 426 85 815 210 1107 357 258 130 545 401 687 650 39 67 110 236 103
243 -7 6 -24 -22 -18 -31 2 -4 -2 -11 -9 -17 -9 -8 -11 1 -8 40 2 31 -2 54 -9
61 -10 9 -11 9 -6 0 4 -8 1 -13 -8 -13 -9 0 -16 4 -16 9 0 5 -10 11 -22 13
-17 2 -27 -4 -38 -24 -14 -24 -15 -10 -15 175 -1 125 -5 209 -12 221 -9 16
-11 12 -18 -29 -9 -63 -58 -202 -102 -290 -62 -124 -212 -333 -213 -297 0 6 4
12 9 12 5 0 11 8 13 18 3 11 0 19 -8 19 -8 0 -14 -5 -14 -10 0 -5 -8 -6 -17
-3 -9 4 -20 1 -25 -6 -6 -10 -10 -10 -16 -1 -6 10 -13 9 -30 -3 -12 -8 -20
-20 -17 -25 4 -5 2 -9 -3 -9 -5 0 -22 -24 -37 -52 -16 -29 -33 -57 -37 -63 -5
-5 -17 -21 -28 -34 -33 -40 -23 -14 19 47 159 234 251 558 251 881 0 203 -31
375 -120 661 -70 226 -88 308 -97 455 -3 58 -12 108 -19 120 -8 11 -14 14 -14
8 0 -7 5 -15 10 -18 6 -3 10 -18 10 -33 0 -21 -2 -24 -10 -12 -5 8 -10 11 -10
7 0 -4 -8 -3 -18 2 -15 8 -18 6 -17 -7 0 -10 4 -23 9 -30 4 -7 -2 -28 -15 -50
-17 -28 -19 -33 -6 -23 22 17 32 9 19 -16 -5 -10 -7 -24 -5 -30 3 -7 0 -13 -5
-13 -5 0 -12 -9 -15 -19 -4 -15 0 -18 18 -17 17 2 21 -1 17 -16 -3 -15 -7 -16
-18 -7 -8 7 -17 9 -21 5 -3 -3 -1 -6 5 -6 7 0 12 -9 12 -19 0 -11 5 -23 10
-26 6 -3 10 -1 10 6 0 7 3 10 6 6 14 -13 -7 -27 -26 -17 -16 8 -18 7 -14 -4 3
-8 1 -17 -5 -21 -6 -3 -11 0 -11 8 0 10 -7 13 -21 10 -21 -6 -21 -5 -4 21 14
21 16 32 7 51 -7 15 -8 26 -2 30 6 4 10 -2 11 -12 1 -12 3 -10 8 7 4 14 4 30
-1 36 -4 6 -5 13 -2 17 3 3 -6 4 -21 3 -20 -3 -25 0 -21 13 5 13 4 13 -8 -1
-14 -19 -32 -25 -21 -9 3 5 1 12 -4 16 -6 3 -8 12 -5 19 3 7 -2 16 -11 20 -9
3 -13 10 -10 16 4 6 -3 9 -16 7 -13 -2 -26 -12 -30 -23 -4 -10 -8 -13 -8 -6
-1 7 3 21 9 31 6 13 5 24 -5 37 -8 11 -14 14 -15 7 0 -7 -5 -13 -11 -13 -5 0
-8 4 -4 9 3 5 -3 12 -12 15 -19 6 -48 45 -39 53 7 7 47 -22 41 -30 -3 -4 1 -3
7 3 19 16 32 12 18 -6 -11 -12 -11 -15 1 -12 25 5 27 20 7 42 -14 15 -22 17
-25 9 -3 -9 -10 -10 -23 -3 -9 5 -27 7 -39 5 -15 -3 -21 0 -18 8 3 7 9 11 14
10 5 -1 10 5 10 13 0 8 -4 15 -9 15 -19 3 -24 5 -35 12 -6 4 -15 2 -19 -4z
m60 -97 c3 -5 -1 -9 -9 -9 -8 0 -12 4 -9 9 3 4 7 8 9 8 2 0 6 -4 9 -8z m328
-84 c-6 -6 -12 -6 -17 3 -5 8 -4 10 3 5 7 -4 12 0 13 11 0 12 2 13 6 5 3 -8 1
-18 -5 -24z m-182 -28 c0 -6 -9 -2 -20 7 -11 10 -20 19 -20 21 0 1 9 -2 20 -8
11 -6 20 -15 20 -20z m70 -79 c-4 -16 -6 -32 -4 -35 2 -4 -1 -2 -6 2 -7 6 -8
17 -1 35 14 36 22 34 11 -2z m10 -61 c0 -5 -5 -10 -11 -10 -5 0 -7 5 -4 10 3
6 8 10 11 10 2 0 4 -4 4 -10z m60 -90 c0 -5 -2 -10 -4 -10 -3 0 -8 5 -11 10
-3 6 -1 10 4 10 6 0 11 -4 11 -10z m-50 -40 c0 -5 -2 -10 -4 -10 -3 0 -8 5
-11 10 -3 6 -1 10 4 10 6 0 11 -4 11 -10z m27 -1257 c-3 -10 -5 -4 -5 12 0 17
2 24 5 18 2 -7 2 -21 0 -30z m0 -75 c-2 -13 -4 -5 -4 17 -1 22 1 32 4 23 2
-10 2 -28 0 -40z m676 -213 c-3 -9 -8 -14 -10 -11 -3 3 -2 9 2 15 9 16 15 13
8 -4z"/>
<path d="M14326 9297 c-25 -20 -27 -25 -12 -30 10 -4 15 -3 11 3 -3 6 0 13 9
16 8 3 17 12 20 20 7 18 6 18 -28 -9z"/>
<path d="M14392 9300 c-7 -11 -8 -20 -3 -20 9 0 24 30 18 36 -1 2 -8 -6 -15
-16z"/>
<path d="M14455 9300 c3 -5 11 -10 16 -10 6 0 7 5 4 10 -3 6 -11 10 -16 10 -6
0 -7 -4 -4 -10z"/>
<path d="M14111 9274 c0 -11 3 -14 6 -6 3 7 2 16 -1 19 -3 4 -6 -2 -5 -13z"/>
<path d="M14632 9255 c0 -16 2 -22 5 -12 2 9 2 23 0 30 -3 6 -5 -1 -5 -18z"/>
<path d="M10140 9060 c0 -5 5 -10 11 -10 5 0 7 5 4 10 -3 6 -8 10 -11 10 -2 0
-4 -4 -4 -10z"/>
<path d="M10231 8133 c-19 -146 -25 -533 -12 -718 26 -352 98 -732 198 -1040
246 -759 683 -1449 1251 -1972 107 -99 312 -266 318 -260 1 1 -8 42 -21 90
-32 120 -62 317 -70 462 l-6 120 -58 60 c-142 146 -311 364 -456 585 -110 168
-162 260 -244 431 -116 243 -164 369 -242 634 -65 219 -83 296 -114 485 -46
282 -56 416 -54 699 l1 263 -148 73 c-82 40 -189 98 -238 129 -48 31 -89 56
-90 56 -2 0 -8 -44 -15 -97z"/>
<path d="M13460 6030 c-8 -4 -40 -13 -70 -19 -306 -59 -418 -94 -593 -183
-374 -192 -634 -535 -697 -921 -13 -82 -13 -320 1 -410 16 -108 56 -261 95
-362 53 -138 196 -396 211 -382 2 3 -9 24 -26 48 -16 24 -27 48 -24 53 3 5 12
-3 20 -18 17 -33 27 -34 19 -2 -3 14 -2 27 3 31 6 3 10 -5 10 -17 0 -13 1 -33
1 -45 0 -13 4 -23 9 -23 15 0 22 32 10 46 -10 12 -9 13 5 8 16 -6 20 -16 17
-41 -1 -6 3 -14 8 -17 18 -11 3 48 -37 149 -65 164 -102 308 -117 458 -6 57
-4 67 9 67 10 0 13 -6 9 -17 -4 -11 -3 -14 6 -9 7 5 18 0 26 -10 13 -18 14
-18 15 -1 0 9 7 17 16 17 10 0 14 6 11 14 -4 10 0 12 14 9 13 -4 19 -15 21
-37 0 -17 4 37 9 119 20 393 151 720 401 997 39 43 95 99 125 124 l54 46 -57
-78 c-71 -99 -182 -327 -228 -465 -67 -204 -81 -297 -81 -544 0 -194 3 -232
23 -323 76 -340 258 -662 511 -905 43 -42 75 -66 82 -61 7 4 9 3 6 -3 -7 -11
21 -39 91 -92 32 -25 42 -29 42 -16 0 9 -4 14 -9 11 -11 -7 -36 22 -27 31 4 4
11 1 16 -7 7 -12 11 -12 25 0 14 12 16 12 15 -1 -6 -36 0 -42 20 -24 13 12 20
14 20 5 0 -7 7 -10 15 -6 8 3 14 2 14 -2 -3 -19 2 -25 11 -12 8 12 11 13 19 1
5 -8 16 -11 29 -7 15 5 25 1 34 -13 13 -22 38 -29 38 -11 0 6 9 10 19 10 11 0
21 6 24 13 3 9 10 9 33 -3 16 -8 31 -17 34 -20 3 -3 16 -11 30 -19 36 -19 15
0 -100 91 -380 302 -712 810 -795 1218 -19 92 -15 133 5 50 39 -165 116 -355
210 -520 39 -69 55 -88 68 -84 12 4 13 3 4 -3 -19 -14 -4 -42 19 -36 10 3 19
0 19 -6 0 -6 7 -11 15 -11 8 0 15 -9 15 -21 0 -11 5 -17 10 -14 9 5 14 -7 12
-26 -1 -4 8 -5 18 -2 11 3 20 0 20 -6 0 -6 -6 -11 -12 -11 -7 0 -1 -8 15 -18
15 -9 25 -23 22 -30 -3 -8 3 -11 20 -8 14 3 23 1 20 -4 -5 -8 24 -25 39 -21 4
1 15 -4 24 -11 12 -10 14 -10 8 0 -4 6 -2 12 4 12 6 0 13 -7 16 -15 7 -18 34
-20 34 -3 0 7 23 -12 52 -42 l52 -55 -37 50 c-266 356 -409 676 -467 1045 -63
400 29 819 256 1168 30 46 75 106 101 133 45 48 53 66 23 49z m-1110 -2156 c0
-8 -5 -12 -10 -9 -6 4 -8 11 -5 16 9 14 15 11 15 -7z m1010 -617 c0 -4 -6 -2
-14 5 -8 7 -12 17 -9 22 5 8 23 -12 23 -27z m225 -27 c3 -5 1 -10 -4 -10 -6 0
-11 5 -11 10 0 6 2 10 4 10 3 0 8 -4 11 -10z m39 -15 c-4 -8 -8 -15 -10 -15
-2 0 -4 7 -4 15 0 8 4 15 10 15 5 0 7 -7 4 -15z"/>
<path d="M13810 5980 c-83 -122 -126 -254 -136 -419 -14 -221 65 -447 215
-614 106 -119 286 -225 451 -267 82 -22 304 -40 250 -21 -23 8 -23 9 -3 10 12
1 23 7 25 13 3 8 -23 21 -74 35 -146 42 -343 155 -457 262 l-55 51 21 27 c12
16 27 27 33 25 7 -1 3 9 -9 24 -44 57 -18 46 40 -16 35 -37 46 -46 25 -20
-153 191 -257 396 -292 578 -18 95 -18 262 0 332 8 30 13 56 11 58 -2 2 -22
-24 -45 -58z m171 -877 c13 -16 12 -17 -3 -4 -10 7 -18 15 -18 17 0 8 8 3 21
-13z m79 -13 c0 -5 -4 -10 -8 -10 -5 0 -13 -9 -18 -21 l-9 -21 -20 23 -20 22
23 -7 c12 -4 22 -4 21 1 -3 17 1 23 16 23 8 0 15 -4 15 -10z"/>
<path d="M13552 5890 c-105 -133 -164 -247 -226 -432 -68 -203 -90 -331 -90
-523 -1 -161 9 -241 46 -390 73 -297 226 -561 450 -782 281 -277 605 -456
1006 -557 248 -62 332 -71 657 -70 269 0 301 2 439 27 147 27 211 45 108 31
-54 -7 -66 2 -35 27 11 10 14 10 9 2 -4 -8 -2 -13 7 -13 10 0 13 7 10 18 -5
19 18 45 44 48 8 1 12 -3 10 -9 -2 -7 -11 -11 -19 -9 -8 1 -15 -4 -15 -11 0
-12 8 -11 40 2 22 8 35 17 28 19 -6 2 -11 8 -11 13 0 6 8 5 20 -1 21 -11 40
-6 40 11 0 6 -4 7 -10 4 -5 -3 -10 -1 -10 6 0 7 10 9 24 7 18 -4 28 1 37 19 7
12 17 23 22 23 5 0 4 -6 -2 -14 -9 -11 -8 -15 5 -20 22 -8 26 -8 19 3 -7 13
81 52 122 54 35 2 47 17 14 17 -10 0 -22 7 -25 16 -5 13 -1 15 21 10 21 -5 24
-4 13 4 -10 6 -11 10 -2 10 6 0 12 5 12 11 0 5 -4 7 -10 4 -5 -3 -10 -1 -10 4
0 16 12 14 40 -6 14 -10 26 -17 28 -16 14 10 32 34 32 42 0 6 5 11 10 11 6 0
10 -4 10 -9 0 -5 7 -12 16 -15 13 -5 15 -1 12 18 -3 16 0 27 10 31 10 3 12 0
8 -10 -6 -17 2 -19 23 -6 12 8 11 12 -3 27 -12 11 -20 14 -24 7 -4 -6 -24 -14
-45 -18 -31 -6 -37 -11 -37 -32 0 -18 -5 -23 -17 -21 -10 2 -17 10 -16 16 4
16 -18 15 -43 -3 -12 -8 -23 -12 -26 -10 -2 3 -36 -4 -74 -14 -93 -26 -256
-58 -384 -76 -112 -16 -475 -19 -520 -5 l-25 8 25 2 c14 1 35 1 48 0 12 -1 22
3 22 9 0 7 11 9 25 7 14 -3 25 0 25 6 0 6 9 8 20 5 10 -3 18 0 17 5 -1 6 4 13
11 15 8 3 10 -2 6 -14 -3 -10 2 -5 11 10 9 16 14 40 11 58 -3 23 -1 29 9 25 7
-2 16 2 19 10 3 8 12 14 20 14 8 0 18 4 21 10 4 6 -2 7 -16 2 -28 -11 -71 -3
-62 11 4 6 0 8 -8 5 -8 -3 -23 -2 -34 2 -12 4 10 8 54 9 41 1 76 3 78 5 2 1
-56 6 -129 10 -472 23 -934 187 -1283 455 -357 274 -584 619 -662 1008 -25
124 -24 410 1 553 21 121 57 243 93 313 13 27 23 50 21 52 -2 2 -27 -27 -56
-65z m2702 -2488 c3 -5 -1 -9 -9 -9 -8 0 -12 4 -9 9 3 4 7 8 9 8 2 0 6 -4 9
-8z"/>
<path d="M14255 4953 c22 -22 51 -46 65 -53 31 -16 29 -13 -45 45 -56 44 -57
44 -20 8z"/>
<path d="M13730 4824 c0 -17 91 -179 147 -262 101 -150 290 -333 463 -449 200
-134 519 -261 785 -312 287 -56 686 -46 955 24 161 42 405 148 562 246 91 56
265 187 294 221 17 21 16 20 -10 -2 -18 -15 -30 -21 -33 -14 -2 7 -13 10 -23
7 -14 -4 -20 0 -20 11 0 9 -5 16 -11 16 -5 0 -7 -5 -4 -11 4 -6 -2 -5 -13 2
-19 12 -19 14 -4 26 44 33 -11 6 -131 -65 -73 -43 -172 -97 -221 -121 -169
-81 -455 -164 -604 -174 -53 -3 -53 -3 -30 15 21 16 15 24 -15 19 -5 -1 -6 3
-2 8 3 6 -8 17 -25 26 -19 10 -30 11 -30 5 0 -6 -7 -4 -16 4 -8 9 -24 16 -35
16 -13 0 -18 4 -13 12 4 7 3 8 -4 4 -7 -4 -18 -4 -24 0 -9 6 -5 10 12 16 15 4
-3 6 -48 5 -39 -1 -72 1 -72 5 0 4 13 14 28 22 57 29 210 156 275 227 37 40
65 75 63 77 -3 2 -18 -11 -34 -29 -27 -30 -31 -32 -45 -17 -9 9 -13 19 -9 22
3 4 -2 4 -12 0 -15 -6 -17 -3 -12 14 5 16 -14 8 -98 -43 -57 -34 -144 -79
-193 -99 -224 -95 -522 -128 -715 -81 -51 12 -49 13 87 14 135 1 141 2 167 26
15 14 35 25 45 26 12 1 10 3 -7 8 -17 5 -29 2 -37 -8 -10 -14 -11 -13 -6 6 4
17 14 23 47 26 22 2 -32 4 -121 5 -183 2 -276 13 -414 48 -297 74 -553 211
-746 398 -51 49 -93 85 -93 80z m3150 -564 c-8 -5 -19 -10 -25 -10 -5 0 -3 5
5 10 8 5 20 10 25 10 6 0 3 -5 -5 -10z"/>
<path d="M15949 4543 c-13 -16 -12 -17 4 -4 16 13 21 21 13 21 -2 0 -10 -8
-17 -17z"/>
<path d="M15974 4508 c-15 -24 -32 -49 -38 -57 -8 -11 -8 -13 1 -8 12 8 76
107 68 107 -3 0 -17 -19 -31 -42z"/>
<path d="M12442 4330 c0 -14 2 -19 5 -12 2 6 2 18 0 25 -3 6 -5 1 -5 -13z"/>
<path d="M17225 3821 c3 -5 -12 -23 -32 -40 -21 -17 -35 -31 -31 -31 3 0 24
15 47 34 31 26 37 35 25 40 -8 3 -13 2 -9 -3z"/>
<path d="M17109 3713 c-13 -16 -12 -17 4 -4 16 13 21 21 13 21 -2 0 -10 -8
-17 -17z"/>
<path d="M16640 3600 c-9 -6 -10 -10 -3 -10 6 0 15 5 18 10 8 12 4 12 -15 0z"/>
<path d="M16600 3579 c0 -5 5 -7 10 -4 6 3 10 8 10 11 0 2 -4 4 -10 4 -5 0
-10 -5 -10 -11z"/>
<path d="M16570 3570 c-9 -6 -10 -10 -3 -10 6 0 15 5 18 10 8 12 4 12 -15 0z"/>
<path d="M15588 3563 c6 -2 18 -2 25 0 6 3 1 5 -13 5 -14 0 -19 -2 -12 -5z"/>
<path d="M16533 3540 c3 -11 1 -20 -4 -20 -5 0 -9 5 -9 12 0 20 -11 1 -14 -24
-2 -18 2 -23 22 -24 18 -2 23 2 19 16 -5 19 17 35 33 25 5 -3 12 0 15 6 5 7
16 2 32 -13 l26 -23 -5 27 c-3 15 0 30 6 32 22 11 -59 -2 -88 -13 -24 -10 -27
-9 -22 4 3 8 0 15 -5 15 -6 0 -9 -9 -6 -20z"/>
<path d="M16480 3530 c0 -5 5 -10 10 -10 6 0 10 5 10 10 0 6 -4 10 -10 10 -5
0 -10 -4 -10 -10z"/>
<path d="M16675 3531 c-3 -5 -2 -12 3 -15 5 -3 9 1 9 9 0 17 -3 19 -12 6z"/>
<path d="M16710 3506 c0 -9 5 -16 10 -16 6 0 10 4 10 9 0 6 -4 13 -10 16 -5 3
-10 -1 -10 -9z"/>
<path d="M15535 3500 c4 -6 11 -8 16 -5 14 9 11 15 -7 15 -8 0 -12 -5 -9 -10z"/>
<path d="M16572 3498 c2 -6 10 -13 16 -14 7 -1 8 0 2 3 -5 2 -8 9 -4 14 3 5 0
9 -6 9 -7 0 -10 -5 -8 -12z"/>
<path d="M16723 3476 c-34 -17 -62 -34 -63 -39 0 -7 96 39 130 62 29 20 -5 8
-67 -23z"/>
<path d="M16351 3474 c0 -11 3 -14 6 -6 3 7 2 16 -1 19 -3 4 -6 -2 -5 -13z"/>
<path d="M16675 3480 c-3 -5 -2 -10 4 -10 5 0 13 5 16 10 3 6 2 10 -4 10 -5 0
-13 -4 -16 -10z"/>
<path d="M16643 3465 c0 -8 4 -12 9 -9 5 3 6 10 3 15 -9 13 -12 11 -12 -6z"/>
<path d="M15500 3449 c0 -11 4 -18 10 -14 5 3 7 12 3 20 -7 21 -13 19 -13 -6z"/>
<path d="M16478 3453 c-22 -13 -22 -13 7 -7 33 7 54 21 31 21 -8 0 -25 -6 -38
-14z"/>
<path d="M16579 3453 c-1 -4 -1 -11 0 -15 0 -5 -3 -8 -9 -8 -5 0 -10 5 -10 10
0 6 -4 10 -10 10 -12 0 -13 -10 -2 -27 7 -10 14 -10 35 0 15 6 25 16 24 21 -4
13 -27 20 -28 9z"/>
<path d="M16508 3423 c6 -2 10 -9 6 -14 -9 -15 2 -10 16 6 10 13 9 15 -11 14
-13 0 -18 -3 -11 -6z"/>
<path d="M16600 3414 c-14 -8 -18 -14 -10 -13 8 0 26 6 40 14 14 8 18 14 10
14 -8 -1 -26 -7 -40 -15z"/>
<path d="M16550 3390 c-9 -6 -10 -10 -3 -10 6 0 15 5 18 10 8 12 4 12 -15 0z"/>
<path d="M16210 3340 c0 -5 5 -10 11 -10 5 0 7 5 4 10 -3 6 -8 10 -11 10 -2 0
-4 -4 -4 -10z"/>
<path d="M16183 3333 c-15 -5 -17 -23 -4 -23 5 0 11 7 15 15 3 8 4 15 3 14 -1
0 -8 -3 -14 -6z"/>
<path d="M16048 3213 c7 -3 16 -2 19 1 4 3 -2 6 -13 5 -11 0 -14 -3 -6 -6z"/>
<path d="M16008 3203 c7 -3 16 -2 19 1 4 3 -2 6 -13 5 -11 0 -14 -3 -6 -6z"/>
<path d="M13560 3190 c0 -6 -5 -8 -11 -4 -7 4 -10 1 -7 -6 5 -15 30 -27 27
-13 -4 20 2 27 12 13 9 -12 10 -12 7 -1 -5 18 -28 27 -28 11z"/>
<path d="M13435 3180 c3 -5 8 -10 11 -10 2 0 4 5 4 10 0 6 -5 10 -11 10 -5 0
-7 -4 -4 -10z"/>
<path d="M13465 3161 c3 -6 20 -18 37 -27 16 -9 27 -11 24 -5 -4 7 1 11 13 11
12 0 21 -4 21 -10 0 -5 5 -10 10 -10 20 0 9 21 -17 33 -21 9 -27 9 -30 0 -4
-10 -12 -9 -35 3 -17 9 -27 11 -23 5z"/>
</g>
</svg>
